<svg xmlns="http://www.w3.org/2000/svg" width="800" height="800" viewBox="0 0 32 32"><path d="M25.297 21.713a6.77 6.77 0 0 1-4.751 1.937 6.778 6.778 0 0 1-4.738-1.923l.002.002a5.638 5.638 0 0 1-1.282-1.988l-.013-.039a5.237 5.237 0 0 1-.315-1.809c0-.95.247-1.842.681-2.615l-.014.027a5.933 5.933 0 0 1 1.43-1.705l.011-.008a6.806 6.806 0 0 1 4.253-1.481c1.606 0 3.083.553 4.251 1.479l-.014-.011a5.858 5.858 0 0 1 1.424 1.679l.015.029c.348.615.581 1.34.651 2.111l.002.021a5.296 5.296 0 0 1-.31 2.299l.012-.037a5.688 5.688 0 0 1-1.294 2.032zm-15.108-2.175c.04.638.154 1.233.334 1.8l-.014-.053a9.248 9.248 0 0 0 1.997 3.452l-.006-.007a10.316 10.316 0 0 0 3.417 2.474l.065.026c1.341.6 2.907.95 4.555.95 1.661 0 3.238-.355 4.661-.994l-.072.029a10.43 10.43 0 0 0 3.473-2.503l.008-.008a9.264 9.264 0 0 0 1.971-3.386l.018-.066c.254-.78.4-1.677.4-2.609 0-.435-.032-.862-.093-1.28l.006.047a8.88 8.88 0 0 0-1.291-3.509l.022.036a9.77 9.77 0 0 0-2.292-2.536l-.022-.017h.003l-9.395-7.213a2.067 2.067 0 0 0-1.16-.353c-.434 0-.838.133-1.171.36l.007-.005a1.059 1.059 0 0 0-.157 1.767l.002.002-.001.001 3.906 3.178-11.925.012-.065-.001c-.946 0-1.752.606-2.049 1.45l-.005.015c-.192.831.475 1.521 1.5 1.525v.002l6.036-.012-10.814 8.3a2.12 2.12 0 0 0-.699 2.9l-.005-.009c.393.39.934.631 1.531.631a2.17 2.17 0 0 0 1.527-.626l5.878-4.81a8.796 8.796 0 0 0-.079 1.03v.009zm6.448-2.021a3.55 3.55 0 0 1 1.281-2.502l.006-.005c.746-.615 1.711-.987 2.764-.987s2.018.373 2.771.993l-.008-.006a3.536 3.536 0 0 1 1.284 2.495l.001.011a3.47 3.47 0 0 1-1.079 2.689l-.002.001c-.774.726-1.819 1.172-2.968 1.172s-2.194-.446-2.97-1.174l.002.002a3.469 3.469 0 0 1-1.081-2.698v.008z"/></svg>