<svg id="visual" viewBox="0 0 1920 1080" width="1920" height="1080" xmlns="http://www.w3.org/2000/svg" xmlns:xlink="http://www.w3.org/1999/xlink" version="1.1"><rect x="0" y="0" width="1920" height="1080" fill="#000000"></rect><defs><linearGradient id="grad1_0" x1="43.8%" y1="100%" x2="100%" y2="0%"><stop offset="14.444444444444446%" stop-color="#545454" stop-opacity="1"></stop><stop offset="85.55555555555554%" stop-color="#545454" stop-opacity="1"></stop></linearGradient></defs><defs><linearGradient id="grad1_1" x1="43.8%" y1="100%" x2="100%" y2="0%"><stop offset="14.444444444444446%" stop-color="#545454" stop-opacity="1"></stop><stop offset="85.55555555555554%" stop-color="#3f3f3f" stop-opacity="1"></stop></linearGradient></defs><defs><linearGradient id="grad1_2" x1="43.8%" y1="100%" x2="100%" y2="0%"><stop offset="14.444444444444446%" stop-color="#2c2c2c" stop-opacity="1"></stop><stop offset="85.55555555555554%" stop-color="#3f3f3f" stop-opacity="1"></stop></linearGradient></defs><defs><linearGradient id="grad1_3" x1="43.8%" y1="100%" x2="100%" y2="0%"><stop offset="14.444444444444446%" stop-color="#2c2c2c" stop-opacity="1"></stop><stop offset="85.55555555555554%" stop-color="#191919" stop-opacity="1"></stop></linearGradient></defs><defs><linearGradient id="grad1_4" x1="43.8%" y1="100%" x2="100%" y2="0%"><stop offset="14.444444444444446%" stop-color="#000000" stop-opacity="1"></stop><stop offset="85.55555555555554%" stop-color="#191919" stop-opacity="1"></stop></linearGradient></defs><defs><linearGradient id="grad2_0" x1="0%" y1="100%" x2="56.3%" y2="0%"><stop offset="14.444444444444446%" stop-color="#545454" stop-opacity="1"></stop><stop offset="85.55555555555554%" stop-color="#545454" stop-opacity="1"></stop></linearGradient></defs><defs><linearGradient id="grad2_1" x1="0%" y1="100%" x2="56.3%" y2="0%"><stop offset="14.444444444444446%" stop-color="#3f3f3f" stop-opacity="1"></stop><stop offset="85.55555555555554%" stop-color="#545454" stop-opacity="1"></stop></linearGradient></defs><defs><linearGradient id="grad2_2" x1="0%" y1="100%" x2="56.3%" y2="0%"><stop offset="14.444444444444446%" stop-color="#3f3f3f" stop-opacity="1"></stop><stop offset="85.55555555555554%" stop-color="#2c2c2c" stop-opacity="1"></stop></linearGradient></defs><defs><linearGradient id="grad2_3" x1="0%" y1="100%" x2="56.3%" y2="0%"><stop offset="14.444444444444446%" stop-color="#191919" stop-opacity="1"></stop><stop offset="85.55555555555554%" stop-color="#2c2c2c" stop-opacity="1"></stop></linearGradient></defs><defs><linearGradient id="grad2_4" x1="0%" y1="100%" x2="56.3%" y2="0%"><stop offset="14.444444444444446%" stop-color="#191919" stop-opacity="1"></stop><stop offset="85.55555555555554%" stop-color="#000000" stop-opacity="1"></stop></linearGradient></defs><g transform="translate(1920, 1080)"><path d="M-972 0C-963.7 -130.9 -955.4 -261.7 -898 -372C-840.6 -482.2 -734.2 -571.8 -629.3 -629.3C-524.4 -686.8 -421.1 -712.3 -316.5 -764C-211.8 -815.8 -105.9 -893.9 0 -972L0 0Z" fill="#0f0f0f"></path><path d="M-777.6 0C-771 -104.7 -764.3 -209.4 -718.4 -297.6C-672.5 -385.8 -587.4 -457.4 -503.5 -503.5C-419.6 -549.5 -336.9 -569.8 -253.2 -611.2C-169.5 -652.7 -84.7 -715.1 0 -777.6L0 0Z" fill="#222222"></path><path d="M-583.2 0C-578.2 -78.5 -573.2 -157 -538.8 -223.2C-504.4 -289.3 -440.5 -343.1 -377.6 -377.6C-314.7 -412.1 -252.7 -427.4 -189.9 -458.4C-127.1 -489.5 -63.6 -536.3 0 -583.2L0 0Z" fill="#353535"></path><path d="M-388.8 0C-385.5 -52.3 -382.2 -104.7 -359.2 -148.8C-336.3 -192.9 -293.7 -228.7 -251.7 -251.7C-209.8 -274.7 -168.4 -284.9 -126.6 -305.6C-84.7 -326.3 -42.4 -357.6 0 -388.8L0 0Z" fill="#4a4a4a"></path><path d="M-194.4 0C-192.7 -26.2 -191.1 -52.3 -179.6 -74.4C-168.1 -96.4 -146.8 -114.4 -125.9 -125.9C-104.9 -137.4 -84.2 -142.5 -63.3 -152.8C-42.4 -163.2 -21.2 -178.8 0 -194.4L0 0Z" fill="#545454"></path></g><g transform="translate(0, 0)"><path d="M972 0C959.3 128.9 946.7 257.9 898 372C849.3 486.1 764.7 585.4 671.8 671.8C578.8 758.1 477.6 831.6 364.3 879.5C251 927.4 125.5 949.7 0 972L0 0Z" fill="#0f0f0f"></path><path d="M777.6 0C767.5 103.1 757.3 206.3 718.4 297.6C679.5 388.9 611.7 468.3 537.4 537.4C463.1 606.5 382.1 665.3 291.5 703.6C200.8 741.9 100.4 759.8 0 777.6L0 0Z" fill="#222222"></path><path d="M583.2 0C575.6 77.4 568 154.7 538.8 223.2C509.6 291.6 458.8 351.2 403.1 403.1C347.3 454.9 286.6 499 218.6 527.7C150.6 556.5 75.3 569.8 0 583.2L0 0Z" fill="#353535"></path><path d="M388.8 0C383.7 51.6 378.7 103.1 359.2 148.8C339.7 194.4 305.9 234.1 268.7 268.7C231.5 303.3 191.1 332.7 145.7 351.8C100.4 371 50.2 379.9 0 388.8L0 0Z" fill="#4a4a4a"></path><path d="M194.4 0C191.9 25.8 189.3 51.6 179.6 74.4C169.9 97.2 152.9 117.1 134.4 134.4C115.8 151.6 95.5 166.3 72.9 175.9C50.2 185.5 25.1 189.9 0 194.4L0 0Z" fill="#545454"></path></g></svg>